<?xml version="1.0" encoding="UTF-8" standalone="no"?>
<!DOCTYPE svg PUBLIC "-//W3C//DTD SVG 1.1//EN" "http://www.w3.org/Graphics/SVG/1.1/DTD/svg11.dtd">
<svg width="100%" height="100%" viewBox="0 0 800 150" version="1.1" xmlns="http://www.w3.org/2000/svg" xmlns:xlink="http://www.w3.org/1999/xlink" xml:space="preserve" xmlns:serif="http://www.serif.com/" style="fill-rule:evenodd;clip-rule:evenodd;stroke-linejoin:round;stroke-miterlimit:2;">
    <g transform="matrix(1,0,0,1,-123.817,13.0434)">
        <g id="Livello1">
            <g>
                <g>
                    <g transform="matrix(1,0,0,1,352.309,49.907)">
                        <text x="0px" y="0px" style="font-family:'Intervogue-Bold', 'Intervogue';font-weight:700;font-size:66.667px;fill:rgb(223,221,207);">L</text>
                    </g>
                    <g transform="matrix(1,0,0,1,384.842,49.907)">
                        <text x="0px" y="0px" style="font-family:'Intervogue-Bold', 'Intervogue';font-weight:700;font-size:66.667px;fill:rgb(223,221,207);">UC<tspan x="92.734px " y="0px ">A</tspan> POLI</text>
                    </g>
                </g>
                <g>
                    <g transform="matrix(1,0,0,1,243.975,116.573)">
                        <text x="0px" y="0px" style="font-family:'Intervogue-Reg', 'Intervogue';font-size:66.667px;fill:rgb(223,221,207);">So</text>
                    </g>
                    <g transform="matrix(1,0,0,1,313.842,116.573)">
                        <text x="0px" y="0px" style="font-family:'Intervogue-Reg', 'Intervogue';font-size:66.667px;fill:rgb(223,221,207);">ftw</text>
                    </g>
                    <g transform="matrix(1,0,0,1,403.042,116.573)">
                        <text x="0px" y="0px" style="font-family:'Intervogue-Reg', 'Intervogue';font-size:66.667px;fill:rgb(223,221,207);">ar<tspan x="61.134px " y="0px ">e</tspan> de</text>
                    </g>
                    <g transform="matrix(1,0,0,1,590.442,116.573)">
                        <text x="0px" y="0px" style="font-family:'Intervogue-Reg', 'Intervogue';font-size:66.667px;fill:rgb(223,221,207);">v<tspan x="28.333px " y="0px ">e</tspan>loper</text>
                    </g>
                </g>
            </g>
        </g>
    </g>
</svg>
